<svg width="38" height="38" viewBox="0 0 38 38" fill="none" xmlns="http://www.w3.org/2000/svg">
<rect width="38" height="38" rx="19" fill="#F4F3F3"/>
<path d="M13.5718 14.9277H14.9289H25.7861" stroke="#333333" stroke-width="1.6" stroke-linecap="round" stroke-linejoin="round"/>
<path d="M16.9644 14.9282V13.571C16.9644 13.2111 17.1074 12.8659 17.3619 12.6114C17.6164 12.3569 17.9616 12.2139 18.3216 12.2139H21.0359C21.3958 12.2139 21.741 12.3569 21.9955 12.6114C22.25 12.8659 22.393 13.2111 22.393 13.571V14.9282M24.4287 14.9282V24.4282C24.4287 24.7881 24.2857 25.1333 24.0312 25.3878C23.7767 25.6423 23.4315 25.7853 23.0716 25.7853H16.2859C15.9259 25.7853 15.5807 25.6423 15.3262 25.3878C15.0717 25.1333 14.9287 24.7881 14.9287 24.4282V14.9282H24.4287Z" stroke="#333333" stroke-width="1.6" stroke-linecap="round" stroke-linejoin="round"/>
</svg>
