<svg width="20" height="19" viewBox="0 0 20 19" fill="none" xmlns="http://www.w3.org/2000/svg">
<path fill-rule="evenodd" clip-rule="evenodd" d="M14.2623 0C12.3467 0 11.0616 0.927644 10.0042 1.93062C8.97652 0.936038 7.73186 0.000469327 5.73725 0.000469327C4.20946 0.000469327 2.74815 0.619169 1.67373 1.71414C0.599945 2.80847 0 4.28873 0 5.82833C0 7.36792 0.599945 8.84819 1.67373 9.94252L9.99977 18.4278L18.3258 9.94252C18.8577 9.40062 19.2787 8.75825 19.5656 8.05259C19.8526 7.34689 20 6.59113 20 5.82833C20 5.06552 19.8526 4.30976 19.5656 3.60406C19.2788 2.89847 18.8578 2.25617 18.326 1.71431C17.7942 1.17208 17.1617 0.74092 16.4643 0.446398C15.7668 0.151857 15.0185 0 14.2623 0Z" fill="#25282B"/>
</svg>
